<svg width="32" height="32" viewBox="0 0 32 32" fill="none" xmlns="http://www.w3.org/2000/svg">
<rect width="32" height="32" rx="16" fill="#101B28" fill-opacity="0.75"/>
<path d="M22.6667 15.6654V17.732C22.6667 19.2255 22.6667 19.9722 22.3761 20.5427C22.1204 21.0444 21.7124 21.4524 21.2107 21.708C20.6403 21.9987 19.8935 21.9987 18.4 21.9987H13.6C12.1066 21.9987 11.3598 21.9987 10.7894 21.708C10.2876 21.4524 9.87969 21.0444 9.62402 20.5427C9.33337 19.9722 9.33337 19.2255 9.33337 17.732V14.2654C9.33337 12.7719 9.33337 12.0252 9.62402 11.4547C9.87969 10.953 10.2876 10.545 10.7894 10.2893C11.3598 9.9987 12.1066 9.9987 13.6 9.9987H16.3334M20.6667 13.332V9.33203M18.6667 11.332H22.6667M18.6667 15.9987C18.6667 17.4715 17.4728 18.6654 16 18.6654C14.5273 18.6654 13.3334 17.4715 13.3334 15.9987C13.3334 14.5259 14.5273 13.332 16 13.332C17.4728 13.332 18.6667 14.5259 18.6667 15.9987Z" stroke="white" stroke-width="1.5" stroke-linecap="round" stroke-linejoin="round"/>
</svg>
