<svg width="18" height="18" viewBox="0 0 18 18" fill="none" xmlns="http://www.w3.org/2000/svg">
<rect width="18" height="18" fill="white"/>
<path fill-rule="evenodd" clip-rule="evenodd" d="M9 16.5C13.1421 16.5 16.5 13.1421 16.5 9C16.5 4.85786 13.1421 1.5 9 1.5C4.85786 1.5 1.5 4.85786 1.5 9C1.5 13.1421 4.85786 16.5 9 16.5ZM12.444 7.09537C12.6347 6.85015 12.5906 6.49674 12.3453 6.30602C12.1001 6.11529 11.7467 6.15946 11.556 6.40468L8.55074 10.2686C8.48392 10.3545 8.35822 10.3656 8.27731 10.2928L6.3763 8.58192C6.14539 8.3741 5.78972 8.39282 5.5819 8.62373C5.37408 8.85464 5.3928 9.21031 5.62371 9.41813L7.52472 11.129C8.09107 11.6388 8.97098 11.5607 9.43876 10.9593L12.444 7.09537Z" fill="currentColor"/>
</svg>
