<svg width="20" height="19" viewBox="0 0 20 19" fill="none" xmlns="http://www.w3.org/2000/svg">
<path d="M10 9.6H9.25C9.25 9.92282 9.45657 10.2094 9.76283 10.3115L10 9.6ZM10.75 5.43333C10.75 5.01912 10.4142 4.68333 10 4.68333C9.58578 4.68333 9.25 5.01912 9.25 5.43333H10.75ZM12.2628 11.1448C12.6558 11.2758 13.0805 11.0635 13.2115 10.6705C13.3425 10.2775 13.1301 9.8528 12.7372 9.72182L12.2628 11.1448ZM10 9.6H10.75V5.43333H10H9.25V9.6H10ZM10 9.6L9.76283 10.3115L12.2628 11.1448L12.5 10.4333L12.7372 9.72182L10.2372 8.88848L10 9.6ZM18.3333 9.6H17.5833C17.5833 13.7882 14.1882 17.1833 10 17.1833V17.9333V18.6833C15.0166 18.6833 19.0833 14.6166 19.0833 9.6H18.3333ZM10 17.9333V17.1833C5.81184 17.1833 2.41666 13.7882 2.41666 9.6H1.66666H0.916664C0.916664 14.6166 4.98341 18.6833 10 18.6833V17.9333ZM1.66666 9.6H2.41666C2.41666 5.41184 5.81184 2.01666 10 2.01666V1.26666V0.516663C4.98341 0.516663 0.916664 4.58341 0.916664 9.6H1.66666ZM10 1.26666V2.01666C14.1882 2.01666 17.5833 5.41184 17.5833 9.6H18.3333H19.0833C19.0833 4.58341 15.0166 0.516663 10 0.516663V1.26666Z" fill="currentColor"/>
</svg>
