<svg width="20" height="20" viewBox="0 0 20 20" fill="none" xmlns="http://www.w3.org/2000/svg">
<path d="M7.5 2.5V16.5C7.5 17.0523 7.05228 17.5 6.5 17.5C5.09987 17.5 4.3998 17.5 3.86502 17.2275C3.39462 16.9878 3.01217 16.6054 2.77248 16.135C2.5 15.6002 2.5 14.9001 2.5 13.5V6.5C2.5 5.09987 2.5 4.3998 2.77248 3.86502C3.01217 3.39462 3.39462 3.01217 3.86502 2.77248C4.3998 2.5 5.09987 2.5 6.5 2.5H7.5ZM7.5 2.5H12.5M12.5 2.5H13.5C14.9001 2.5 15.6002 2.5 16.135 2.77248C16.6054 3.01217 16.9878 3.39462 17.2275 3.86502C17.5 4.3998 17.5 5.26654 17.5 6.66667M12.5 2.5V9.16667M9.9999 17.9167L11.6875 17.5792C11.8346 17.5498 11.9082 17.535 11.9768 17.5081C12.0377 17.4842 12.0955 17.4533 12.1492 17.4159C12.2096 17.3737 12.2627 17.3207 12.3688 17.2146L17.9167 11.6667C18.377 11.2065 18.377 10.4602 17.9167 9.99999C17.4564 9.53976 16.7102 9.53977 16.25 10L10.7021 15.5479C10.596 15.654 10.543 15.707 10.5008 15.7675C10.4634 15.8211 10.4324 15.879 10.4085 15.9399C10.3816 16.0085 10.3669 16.082 10.3375 16.2292L9.9999 17.9167Z" stroke="currentColor" stroke-width="1.5" stroke-linecap="round" stroke-linejoin="round"/>
</svg>
