<svg width="20" height="20" viewBox="0 0 20 20" fill="none" xmlns="http://www.w3.org/2000/svg">
<g clip-path="url(#clip0_4660_60072)">
<path d="M6.66663 6.66675V5.00008C6.66663 3.15913 8.15901 1.66675 9.99996 1.66675L15 1.66675C16.8409 1.66675 18.3333 3.15913 18.3333 5.00008V10.0001C18.3333 11.841 16.8409 13.3334 15 13.3334H13.3333M6.66663 6.66675H4.99996C3.15901 6.66675 1.66663 8.15913 1.66663 10.0001V15.0001C1.66663 16.841 3.15901 18.3334 4.99996 18.3334H9.99996C11.8409 18.3334 13.3333 16.841 13.3333 15.0001V13.3334M6.66663 6.66675H9.99996C11.8409 6.66675 13.3333 8.15913 13.3333 10.0001V13.3334" stroke="currentColor" stroke-width="1.5" stroke-linejoin="round"/>
</g>
<defs>
<clipPath id="clip0_4660_60072">
<rect width="20" height="20" fill="white"/>
</clipPath>
</defs>
</svg>
