<svg width="20" height="21" viewBox="0 0 20 21" fill="none" xmlns="http://www.w3.org/2000/svg">
<g clip-path="url(#clip0_2211_858)">
<path d="M14.8135 6.77872C15.0828 6.56294 15.4765 6.60621 15.6924 6.8754C16.6929 8.12353 17.2919 9.70938 17.292 11.433C17.292 15.4601 14.0271 18.725 10 18.725C5.97292 18.725 2.70801 15.4601 2.70801 11.433C2.70809 9.70938 3.30708 8.12353 4.30762 6.8754C4.52351 6.60621 4.91724 6.56294 5.18652 6.77872C5.45585 6.99461 5.49909 7.3883 5.2832 7.65762C4.45403 8.69199 3.95809 10.0038 3.95801 11.433C3.95801 14.7697 6.66328 17.475 10 17.475C13.3367 17.475 16.042 14.7697 16.042 11.433C16.0419 10.0038 15.546 8.69199 14.7168 7.65762C14.5009 7.3883 14.5442 6.99461 14.8135 6.77872ZM10 0.808014C10.3451 0.80803 10.6248 1.088 10.625 1.43301V11.5912L12.8916 9.32462C13.1357 9.0807 13.5314 9.08059 13.7754 9.32462C14.0194 9.56864 14.0193 9.96431 13.7754 10.2084L10.4424 13.5424C10.3252 13.6596 10.1657 13.725 10 13.725C9.83425 13.725 9.67483 13.6596 9.55762 13.5424L6.22461 10.2084C5.98069 9.96431 5.98059 9.56864 6.22461 9.32462C6.46863 9.08059 6.86431 9.0807 7.1084 9.32462L9.375 11.5912V1.43301C9.37518 1.08799 9.65493 0.808014 10 0.808014Z" fill="currentColor" />
</g>
<defs>
<clipPath id="clip0_2211_858">
<rect width="20" height="20" fill="white" transform="translate(0 0.600006)"/>
</clipPath>
</defs>
</svg>
