<svg width="18" height="18" viewBox="0 0 18 18" fill="none" xmlns="http://www.w3.org/2000/svg">
<path fill-rule="evenodd" clip-rule="evenodd" d="M17.3332 8.99984C17.3332 13.6022 13.6022 17.3332 8.99984 17.3332C4.39747 17.3332 0.666504 13.6022 0.666504 8.99984C0.666504 4.39747 4.39747 0.666504 8.99984 0.666504C13.6022 0.666504 17.3332 4.39747 17.3332 8.99984ZM11.7988 11.7988C11.5547 12.0428 11.159 12.0428 10.9149 11.7988L8.99985 9.88367L7.08475 11.7988C6.84068 12.0428 6.44495 12.0428 6.20087 11.7988C5.95679 11.5547 5.95679 11.159 6.20087 10.9149L8.11596 8.99979L6.20088 7.08471C5.95681 6.84063 5.95681 6.4449 6.20088 6.20082C6.44496 5.95675 6.84069 5.95675 7.08477 6.20082L8.99985 8.1159L10.9149 6.20083C11.159 5.95675 11.5547 5.95675 11.7988 6.20083C12.0429 6.44491 12.0429 6.84064 11.7988 7.08472L9.88373 8.99979L11.7988 10.9149C12.0429 11.1589 12.0429 11.5547 11.7988 11.7988Z" fill="currentColor"/>
</svg>
