<svg width="20" height="20" viewBox="0 0 20 20" fill="none" xmlns="http://www.w3.org/2000/svg">
<g clip-path="url(#clip0_1030_26712)">
<path d="M5 18.3334C6.55623 18.3334 7.86338 17.2669 8.23048 15.825C8.34402 15.379 8.70643 15.0001 9.16667 15.0001H15M5 18.3334C3.15905 18.3334 1.66667 16.841 1.66667 15.0001V4.16675C1.66667 2.78604 2.78595 1.66675 4.16667 1.66675H12.5C13.8807 1.66675 15 2.78604 15 4.16675V15.0001M5 18.3334H15C16.5562 18.3334 17.8634 17.2669 18.2305 15.825C18.344 15.379 17.9602 15.0001 17.5 15.0001H15M5.83333 8.33342H10.8333" stroke="currentColor" stroke-width="1.5" stroke-linecap="round"/>
</g>
<defs>
<clipPath id="clip0_1030_26712">
<rect width="20" height="20" fill="white"/>
</clipPath>
</defs>
</svg>
