<svg width="20" height="20" viewBox="0 0 20 20" fill="none" xmlns="http://www.w3.org/2000/svg">
<path d="M10.7809 7.35717C10.3805 7.85757 9.61946 7.85757 9.21913 7.35717L7.96642 5.79128C7.44261 5.13652 7.90878 4.16658 8.74729 4.16658L11.2527 4.16659C12.0912 4.16659 12.5574 5.13652 12.0336 5.79128L10.7809 7.35717Z" stroke="currentColor" stroke-width="1.5"/>
<path d="M14.7333 13.5333C16.2166 15.511 14.8055 18.3333 12.3333 18.3333L7.66667 18.3333C5.19454 18.3333 3.78339 15.511 5.26667 13.5333L6.56667 11.7999C7.36667 10.7333 7.36667 9.26658 6.56667 8.19992L5.26667 6.46658C3.78339 4.48888 5.19453 1.66658 7.66667 1.66658L12.3333 1.66659C14.8055 1.66659 16.2166 4.48888 14.7333 6.46659L13.4333 8.19992C12.6333 9.26658 12.6333 10.7333 13.4333 11.7999L14.7333 13.5333Z" stroke="currentColor" stroke-width="1.5"/>
</svg>
