<svg width="18" height="18" viewBox="0 0 18 18" fill="none" xmlns="http://www.w3.org/2000/svg">
<path fill-rule="evenodd" clip-rule="evenodd" d="M17.3332 8.99984C17.3332 13.6022 13.6022 17.3332 8.99984 17.3332C4.39746 17.3332 0.666504 13.6022 0.666504 8.99984C0.666504 4.39746 4.39746 0.666504 8.99984 0.666504C13.6022 0.666504 17.3332 4.39746 17.3332 8.99984ZM9.83317 4.83317C9.83317 5.29341 9.46007 5.6665 8.99984 5.6665C8.5396 5.6665 8.1665 5.29341 8.1665 4.83317C8.1665 4.37293 8.5396 3.99984 8.99984 3.99984C9.46007 3.99984 9.83317 4.37293 9.83317 4.83317ZM8.1665 6.70817C7.82133 6.70817 7.5415 6.98799 7.5415 7.33317C7.5415 7.67835 7.82133 7.95817 8.1665 7.95817H8.37484V13.1665C8.37484 13.5117 8.65466 13.7915 8.99984 13.7915C9.34502 13.7915 9.62484 13.5117 9.62484 13.1665V7.33317C9.62484 6.98799 9.34502 6.70817 8.99984 6.70817H8.1665Z" fill="currentColor"/>
</svg>
