<svg width="20" height="20" viewBox="0 0 20 20" fill="none" xmlns="http://www.w3.org/2000/svg">
<path d="M16.667 11.6665L17.6266 10.7069C18.0171 10.3164 18.0171 9.68326 17.6266 9.29273L16.667 8.33317" stroke="currentColor" stroke-width="1.5" stroke-linecap="round" stroke-linejoin="round"/>
<path d="M17.5003 10.0002H10.8337M5.00033 16.6668C3.15938 16.6668 1.66699 15.1744 1.66699 13.3335V6.66683C1.66699 4.82588 3.15938 3.3335 5.00033 3.3335M5.00033 16.6668C6.84127 16.6668 8.33366 15.1744 8.33366 13.3335V6.66683C8.33366 4.82588 6.84127 3.3335 5.00033 3.3335M5.00033 16.6668H11.667C13.5079 16.6668 15.0003 15.1744 15.0003 13.3335M5.00033 3.3335H11.667C13.5079 3.3335 15.0003 4.82588 15.0003 6.66683" stroke="currentColor" stroke-width="1.5" stroke-linecap="round"/>
</svg>
