<svg width="20" height="20" viewBox="0 0 20 20" fill="none" xmlns="http://www.w3.org/2000/svg">
<path d="M11.6667 7.50008C11.6667 8.42056 10.9205 9.16675 10 9.16675C9.07953 9.16675 8.33333 8.42056 8.33333 7.50008C8.33333 6.57961 9.07953 5.83341 10 5.83341C10.9205 5.83341 11.6667 6.57961 11.6667 7.50008Z" stroke="currentColor" stroke-width="1.5"/>
<path d="M15.8333 7.38103C15.8333 9.28467 14.4184 11.6639 12.8687 13.2524C11.8493 14.2974 10.7716 15.0001 10 15.0001C9.22844 15.0001 8.15073 14.2974 7.1313 13.2524C5.58163 11.6639 4.16667 9.28467 4.16667 7.38103C4.16667 4.22512 6.77834 1.66675 10 1.66675C13.2217 1.66675 15.8333 4.22512 15.8333 7.38103Z" stroke="currentColor" stroke-width="1.5"/>
<path d="M12.6285 13.4912C15.4742 13.8462 17.5 14.7609 17.5 15.8334C17.5 17.2141 14.1421 18.3334 10 18.3334C5.85786 18.3334 2.5 17.2141 2.5 15.8334C2.5 14.7609 4.52584 13.8462 7.37151 13.4912" stroke="currentColor" stroke-width="1.5" stroke-linecap="round"/>
</svg>
