<svg width="10" height="10" viewBox="0 0 10 10" fill="none" xmlns="http://www.w3.org/2000/svg">
<path fill-rule="evenodd" clip-rule="evenodd" d="M8.09349 8.97736C8.33757 9.22144 8.73329 9.22144 8.97737 8.97736C9.22145 8.73329 9.22145 8.33756 8.97737 8.09348L5.88379 4.9999L8.97736 1.90633C9.22144 1.66226 9.22144 1.26653 8.97736 1.02245C8.73329 0.778373 8.33756 0.778373 8.09348 1.02245L4.99991 4.11602L1.9063 1.02241C1.66223 0.778336 1.2665 0.778336 1.02242 1.02241C0.778343 1.26649 0.778343 1.66222 1.02242 1.9063L4.11603 4.9999L1.02241 8.09352C0.778336 8.3376 0.778336 8.73332 1.02241 8.9774C1.26649 9.22148 1.66222 9.22148 1.9063 8.9774L4.99991 5.88379L8.09349 8.97736Z" fill="currentColor"/>
</svg>
