<svg width="20" height="20" viewBox="0 0 20 20" fill="none" xmlns="http://www.w3.org/2000/svg">
<path d="M7.25593 6.42259C7.58136 6.09715 7.58136 5.56951 7.25593 5.24408C6.93049 4.91864 6.40285 4.91864 6.07742 5.24408L1.91075 9.41074C1.58531 9.73618 1.58531 10.2638 1.91075 10.5893L6.07742 14.7559C6.40285 15.0814 6.93049 15.0814 7.25593 14.7559C7.58136 14.4305 7.58136 13.9028 7.25593 13.5774L3.67852 10L7.25593 6.42259Z" fill="currentColor"/>
<path d="M13.9226 5.24408C13.5972 4.91864 13.0695 4.91864 12.7441 5.24408C12.4186 5.56951 12.4186 6.09715 12.7441 6.42259L16.3215 10L12.7441 13.5774C12.4186 13.9028 12.4186 14.4305 12.7441 14.7559C13.0695 15.0814 13.5972 15.0814 13.9226 14.7559L18.0893 10.5893C18.4147 10.2638 18.4147 9.73618 18.0893 9.41074L13.9226 5.24408Z" fill="currentColor"/>
</svg>
