<svg width="18" height="18" viewBox="0 0 18 18" fill="none" xmlns="http://www.w3.org/2000/svg">
<path fill-rule="evenodd" clip-rule="evenodd" d="M8.99984 17.3332C13.6022 17.3332 17.3332 13.6022 17.3332 8.99984C17.3332 4.39746 13.6022 0.666504 8.99984 0.666504C4.39746 0.666504 0.666504 4.39746 0.666504 8.99984C0.666504 13.6022 4.39746 17.3332 8.99984 17.3332ZM12.8265 6.88358C13.0384 6.61111 12.9894 6.21844 12.7169 6.00652C12.4444 5.7946 12.0518 5.84369 11.8398 6.11615L8.50066 10.4094C8.42641 10.5048 8.28674 10.5172 8.19685 10.4363L6.08461 8.53531C5.82804 8.3044 5.43286 8.32519 5.20195 8.58176C4.97104 8.83833 4.99184 9.23351 5.24841 9.46443L7.36064 11.3654C7.98992 11.9318 8.96759 11.8451 9.48735 11.1768L12.8265 6.88358Z" fill="currentColor"/>
</svg>
