<svg width="31" height="30" viewBox="0 0 31 30" fill="none" xmlns="http://www.w3.org/2000/svg">
<path d="M0.874999 16.5C0.874999 12.565 4.06497 9.375 8 9.375L8.75 9.375C9.37132 9.375 9.875 9.87868 9.875 10.5C9.875 11.1213 9.37132 11.625 8.75 11.625L8 11.625C5.30761 11.625 3.125 13.8076 3.125 16.5L3.125 22.5C3.125 25.1924 5.30761 27.375 8 27.375L23 27.375C25.6924 27.375 27.875 25.1924 27.875 22.5L27.875 16.5C27.875 13.8076 25.6924 11.625 23 11.625L22.25 11.625C21.6287 11.625 21.125 11.1213 21.125 10.5C21.125 9.87868 21.6287 9.375 22.25 9.375L23 9.375C26.935 9.375 30.125 12.565 30.125 16.5L30.125 22.5C30.125 26.435 26.935 29.625 23 29.625L8 29.625C4.06497 29.625 0.875 26.435 0.875 22.5L0.874999 16.5ZM10.2041 6.7959C9.76476 6.35656 9.76476 5.64344 10.2041 5.2041L14.7041 0.704101C15.1434 0.26476 15.8566 0.26476 16.2959 0.704101L20.7959 5.2041C21.2352 5.64344 21.2352 6.35656 20.7959 6.7959C20.3566 7.23524 19.6434 7.23523 19.2041 6.7959L16.625 4.21582L16.625 19.5C16.625 20.1213 16.1213 20.625 15.5 20.625C14.8787 20.625 14.375 20.1213 14.375 19.5L14.375 4.21582L11.7959 6.7959C11.3566 7.23524 10.6434 7.23523 10.2041 6.7959Z" fill="currentColor"/>
</svg>
