<svg width="20" height="20" viewBox="0 0 20 20" fill="none" xmlns="http://www.w3.org/2000/svg">
<path d="M13.3333 17.5V16.5C13.3333 15.0999 13.3333 14.3998 13.0608 13.865C12.8212 13.3946 12.4387 13.0122 11.9683 12.7725C11.4335 12.5 10.7335 12.5 9.33333 12.5H5.66667C4.26653 12.5 3.56647 12.5 3.03169 12.7725C2.56128 13.0122 2.17883 13.3946 1.93915 13.865C1.66667 14.3998 1.66667 15.0999 1.66667 16.5V17.5M13.3333 5.00001L15 6.66668L18.3333 3.33334M10.4167 6.25001C10.4167 7.86084 9.11083 9.16668 7.5 9.16668C5.88917 9.16668 4.58333 7.86084 4.58333 6.25001C4.58333 4.63918 5.88917 3.33334 7.5 3.33334C9.11083 3.33334 10.4167 4.63918 10.4167 6.25001Z" stroke="currentColor" stroke-width="1.5" stroke-linecap="round" stroke-linejoin="round"/>
</svg>
