<svg width="20" height="20" viewBox="0 0 20 20" fill="none" xmlns="http://www.w3.org/2000/svg">
<ellipse cx="10" cy="13.75" rx="5" ry="2.08333" stroke="currentColor" stroke-width="1.5" stroke-linejoin="round"/>
<ellipse cx="10" cy="6.66667" rx="2.5" ry="2.5" stroke="currentColor" stroke-width="1.5" stroke-linejoin="round"/>
<path d="M5.62695 10.9216C4.67273 11.3886 3.95766 12.0049 3.59668 12.7068C3.44188 12.7518 3.29746 12.7988 3.16602 12.8513C2.84158 12.9811 2.62882 13.1168 2.50977 13.2292C2.45719 13.279 2.43245 13.3136 2.42188 13.3328C2.43219 13.3517 2.45638 13.3868 2.50977 13.4373C2.6288 13.5497 2.84153 13.6854 3.16602 13.8152C3.22099 13.8372 3.27869 13.8569 3.33789 13.8777C3.37582 14.5152 3.69707 15.1112 4.23242 15.6296C3.63004 15.5378 3.07784 15.3965 2.6084 15.2087C2.17938 15.0371 1.78207 14.8131 1.47949 14.5271C1.2133 14.2754 0.98227 13.9352 0.928711 13.5173L0.916992 13.3337L0.928711 13.1492C0.982318 12.7314 1.21334 12.3911 1.47949 12.1394C1.78201 11.8535 2.17951 11.6303 2.6084 11.4587C3.42227 11.1332 4.48387 10.9425 5.62695 10.9216Z" fill="currentColor"/>
<path d="M14.3729 10.9216C15.5162 10.9425 16.5775 11.1332 17.3915 11.4587C17.8207 11.6304 18.2187 11.8532 18.5214 12.1394C18.8256 12.4272 19.0829 12.8309 19.0829 13.3337C19.0827 13.8363 18.8255 14.2394 18.5214 14.5271C18.2187 14.8133 17.8207 15.037 17.3915 15.2087C16.922 15.3965 16.3698 15.5377 15.7675 15.6296C16.3029 15.1112 16.624 14.5152 16.662 13.8777C16.7212 13.8569 16.7789 13.8372 16.8339 13.8152C17.1583 13.6854 17.3711 13.5497 17.4901 13.4373C17.5431 13.3872 17.5666 13.3519 17.577 13.3328C17.5663 13.3135 17.5423 13.2786 17.4901 13.2292C17.371 13.1168 17.1582 12.9811 16.8339 12.8513C16.7024 12.7988 16.558 12.7518 16.4032 12.7068C16.0422 12.0049 15.3272 11.3886 14.3729 10.9216Z" fill="currentColor"/>
<path d="M14.1667 5.08301C15.5012 5.08318 16.5826 6.16557 16.5828 7.5C16.5826 8.83443 15.5012 9.91584 14.1667 9.91602C13.7286 9.91596 13.3189 9.79758 12.9646 9.59375C13.3186 9.23525 13.6081 8.81312 13.8142 8.3457C13.9228 8.39099 14.0418 8.41597 14.1667 8.41602C14.6728 8.41584 15.0826 8.006 15.0828 7.5C15.0826 6.994 14.6728 6.58318 14.1667 6.58301H14.1648C14.1545 6.06119 14.0483 5.56334 13.863 5.10547C13.9626 5.09295 14.0637 5.08302 14.1667 5.08301Z" fill="currentColor"/>
<path d="M5.83398 5.08301C5.93661 5.08303 6.03746 5.09204 6.13672 5.10449C5.95131 5.56257 5.84525 6.06091 5.83496 6.58301H5.83398C5.32783 6.58301 4.91717 6.99389 4.91699 7.5C4.91717 8.00611 5.32783 8.41602 5.83398 8.41602C5.95896 8.41593 6.07801 8.39105 6.18652 8.3457C6.39255 8.81296 6.68129 9.23534 7.03516 9.59375C6.68107 9.7974 6.27182 9.9159 5.83398 9.91602C4.4994 9.91602 3.41717 8.83454 3.41699 7.5C3.41717 6.16546 4.4994 5.08301 5.83398 5.08301Z" fill="currentColor"/>
</svg>
