<svg width="20" height="20" viewBox="0 0 20 20" fill="none" xmlns="http://www.w3.org/2000/svg">
<path d="M5.53467 12.6031C6.61072 12.0064 7.84897 11.6666 9.16658 11.6666C9.44825 11.6666 9.72629 11.6822 9.9999 11.7124" stroke="currentColor" stroke-width="1.5" stroke-linecap="round" stroke-linejoin="round"/>
<circle cx="2.5" cy="2.5" r="2.5" transform="matrix(1 0 0 -1 6.6665 9.16663)" stroke="currentColor" stroke-width="1.5" stroke-linejoin="round"/>
<path d="M16.1626 11.875C16.488 11.0349 16.6665 10.1216 16.6665 9.16663C16.6665 5.02449 13.3086 1.66663 9.1665 1.66663C5.02437 1.66663 1.6665 5.02449 1.6665 9.16663C1.6665 13.3088 5.02437 16.6666 9.1665 16.6666C10.1215 16.6666 11.0348 16.4881 11.8749 16.1627M16.1626 11.875C17.4302 12.3469 18.3332 13.568 18.3332 15C18.3332 16.8409 16.8408 18.3333 14.9998 18.3333C13.5678 18.3333 12.3468 17.4303 11.8749 16.1627M16.1626 11.875C15.8005 11.7403 15.4088 11.6666 14.9998 11.6666C13.1589 11.6666 11.6665 13.159 11.6665 15C11.6665 15.4089 11.7402 15.8007 11.8749 16.1627" stroke="currentColor" stroke-width="1.2" stroke-linejoin="round"/>
<path d="M17.0832 12.9166L12.9165 17.0833" stroke="currentColor" stroke-width="1.5" stroke-linecap="round"/>
</svg>
