<svg width="18" height="18" viewBox="0 0 18 18" fill="none" xmlns="http://www.w3.org/2000/svg">
<path fill-rule="evenodd" clip-rule="evenodd" d="M17.3337 8.99984C17.3337 13.6022 13.6027 17.3332 9.00033 17.3332C4.39795 17.3332 0.666992 13.6022 0.666992 8.99984C0.666992 4.39746 4.39795 0.666504 9.00033 0.666504C13.6027 0.666504 17.3337 4.39746 17.3337 8.99984ZM8.16699 13.1665C8.16699 12.7063 8.54009 12.3332 9.00033 12.3332C9.46056 12.3332 9.83366 12.7063 9.83366 13.1665C9.83366 13.6267 9.46056 13.9998 9.00033 13.9998C8.54009 13.9998 8.16699 13.6267 8.16699 13.1665ZM8.37533 10.6665C8.37533 11.0117 8.65515 11.2915 9.00033 11.2915C9.3455 11.2915 9.62533 11.0117 9.62533 10.6665L9.62533 4.83317C9.62533 4.48799 9.3455 4.20817 9.00033 4.20817C8.65515 4.20817 8.37533 4.48799 8.37533 4.83317L8.37533 10.6665Z" fill="currentColor"/>
</svg>
